<svg xmlns="http://www.w3.org/2000/svg" width="512" height="512" viewBox="1 0 118 118" fill="none">
  <path fill="#000" d="M58 86.215h4a4 4 0 1 1 0 8h-4a4 4 0 1 1 0-8ZM37 73.927a6 6 0 1 0 0-12 6 6 0 0 0 0 12Zm46 0a6 6 0 1 1 0-12 6 6 0 0 1 0 12Z" />
  <path fill="#000" fill-rule="evenodd" d="M60 24.927c-4.4 0-8.633.588-12.645 1.666-7.321-7.741-17.921-11.786-31.426-12.583-3.28-.194-5.952 2.504-5.895 5.79.23 13.169 1.599 21.777 6.064 30.884C2.27 74.4 9.958 105.927 60 105.927s57.73-31.527 43.902-55.243c4.465-9.107 5.834-17.715 6.064-30.885.057-3.285-2.615-5.983-5.895-5.79-13.505.798-24.105 4.843-31.426 12.584A48.67 48.67 0 0 0 60 24.927ZM19.096 63.924C23.37 48.182 39.609 32.927 60 32.927c20.391 0 36.63 15.255 40.904 30.997-1.656-2.428-3.424-4.604-5.306-6.43-4.796-4.654-10.865-7.463-17.747-5.399-3 .9-5.434 2.406-7.264 4.488-1.815 2.066-2.856 4.492-3.408 6.973-1.071 4.808-.408 10.323.446 15.2.35 1.996.723 3.86 1.076 5.621.578 2.886 1.1 5.495 1.37 7.948.186 1.683.497 3.512-.201 5.116-3.018.315-6.301.486-9.87.486-3.569 0-6.852-.171-9.87-.486-.698-1.604-.387-3.433-.202-5.116.27-2.454.793-5.062 1.37-7.948.354-1.76.727-3.625 1.077-5.62.854-4.878 1.517-10.394.446-15.2-.552-2.482-1.593-4.908-3.408-6.974-1.83-2.082-4.264-3.588-7.264-4.488-6.882-2.064-12.95.745-17.747 5.398-1.882 1.827-3.65 4.003-5.306 6.431Zm19.85-34.232c-4.992-4.035-11.801-6.609-20.852-7.49.278 8.838 1.2 15.034 3.412 20.883 4.682-5.474 10.61-10.155 17.44-13.393Zm2.856 66.385c-.086-1.523.006-3.097.174-4.627.304-2.757.953-6.021 1.584-9.191a221.3 221.3 0 0 0 .934-4.882c.846-4.827 1.215-8.957.519-12.081-.331-1.485-.874-2.595-1.61-3.432-.72-.82-1.802-1.581-3.552-2.106-3.118-.935-6.3.005-9.878 3.477C25.04 68.02 22.5 74 19.449 79.953c1.07 2.79 2.74 5.347 5.039 7.588 3.573 3.483 9.12 6.64 17.314 8.536Zm39.253-66.385c4.99-4.035 11.8-6.609 20.851-7.49-.278 8.838-1.2 15.034-3.413 20.883-4.681-5.474-10.61-10.155-17.438-13.393Zm-2.857 66.385c.086-1.523-.006-3.097-.174-4.627-.304-2.757-.953-6.021-1.584-9.191a221.3 221.3 0 0 1-.934-4.882c-.846-4.827-1.215-8.957-.519-12.081.331-1.485.874-2.595 1.61-3.432.72-.82 1.802-1.581 3.552-2.106 3.118-.935 6.3.005 9.878 3.477 4.933 4.785 7.473 10.692 10.524 16.718-1.07 2.79-2.74 5.347-5.039 7.588-3.573 3.483-9.12 6.64-17.314 8.536Z" clip-rule="evenodd" />
</svg>
